<svg xmlns="http://www.w3.org/2000/svg" width="23" height="23.001" viewBox="0 0 23 23.001">
  <g id="Custom_Order" data-name="Custom Order" transform="translate(-210.665 -779)">
    <path id="Custom_Order-2" data-name="Custom Order" d="M2.021,23A2.025,2.025,0,0,1,0,20.979V2.022A2.024,2.024,0,0,1,2.021,0H15.183A2.023,2.023,0,0,1,17.2,2.022V9.637l2.37-2.37a1.349,1.349,0,0,1,1.906,0l1.126,1.125a1.351,1.351,0,0,1,0,1.907l-5.4,5.332v5.348A2.024,2.024,0,0,1,15.183,23ZM1.347,2.022V20.979a.674.674,0,0,0,.674.673H15.183a.674.674,0,0,0,.674-.673V16.963c-.472.466-.5.507-.635.572L11.41,19.314a.674.674,0,0,1-.9-.9l1.778-3.813c.072-.152-.171.116,3.565-3.621V2.022a.675.675,0,0,0-.674-.674H2.021A.675.675,0,0,0,1.347,2.022ZM13.464,15.283,12.52,17.31l2.026-.947,5.061-5L18.5,10.254ZM19.447,9.3l1.118,1.118,1.087-1.073L20.528,8.221ZM3.653,12.9a.685.685,0,1,1,0-1.369H9.5a.685.685,0,1,1,0,1.369Zm0-3.59a.685.685,0,1,1,0-1.369h8.035a.685.685,0,1,1,0,1.369Zm0-3.59a.685.685,0,1,1,0-1.369H13.88a.685.685,0,0,1,0,1.369Z" transform="translate(210.665 779)" fill="#fff"/>
  </g>
</svg>
