<svg xmlns="http://www.w3.org/2000/svg" width="25.376" height="25.001" viewBox="0 0 25.376 25.001">
  <g id="Home" transform="translate(-39.312 -778.733)">
    <path id="home-2" data-name="home" d="M22.38,10l0,0L13,.62A2.117,2.117,0,0,0,10,.62L.624,10l-.009.01a2.117,2.117,0,0,0,1.409,3.608q.032,0,.065,0h.374v6.9A2.481,2.481,0,0,0,4.941,23H8.612a.674.674,0,0,0,.674-.674V16.914a1.132,1.132,0,0,1,1.131-1.131h2.165a1.132,1.132,0,0,1,1.131,1.131v5.413a.674.674,0,0,0,.674.674h3.671a2.481,2.481,0,0,0,2.478-2.478v-6.9h.347A2.118,2.118,0,0,0,22.38,10Zm0,0" transform="translate(40.501 779.733)" fill="none" stroke="#fed430" stroke-width="2"/>
  </g>
</svg>
