<svg xmlns="http://www.w3.org/2000/svg" width="20.187" height="27" viewBox="0 0 20.187 27">
  <path id="Order_List" data-name="Order List" d="M5919.371,2533a2.376,2.376,0,0,1-2.371-2.373v-22.254a2.376,2.376,0,0,1,2.371-2.373h15.443a2.377,2.377,0,0,1,2.372,2.373v22.254a2.377,2.377,0,0,1-2.372,2.373Zm-.79-24.627v22.254a.789.789,0,0,0,.79.791h15.443a.789.789,0,0,0,.79-.791v-22.254a.789.789,0,0,0-.79-.791h-15.443A.789.789,0,0,0,5918.581,2508.372Zm2.635,12.762a.791.791,0,0,1,0-1.582h6.747a.791.791,0,0,1,0,1.582Zm0-4.219a.791.791,0,0,1,0-1.582h9.276a.791.791,0,0,1,0,1.582Zm0-4.219a.791.791,0,0,1,0-1.582h11.807a.791.791,0,0,1,0,1.582Z" transform="translate(-5917 -2505.999)" fill="#fed430"/>
</svg>
