<svg xmlns="http://www.w3.org/2000/svg" width="24" height="24" viewBox="0 0 24 24">
  <g id="Restaurants" transform="translate(-111.496 -779.498)">
    <path id="Restaurant" d="M2.11,24a.7.7,0,0,1-.7-.7V17.672a.7.7,0,0,1,.7-.7H4.816a4.923,4.923,0,0,1,6.967-.466c.328.288.471.466.795.466h2.281a2.114,2.114,0,0,1,1.976,1.37l2.158-2.158a2.109,2.109,0,1,1,2.983,2.983l-4.219,4.219A2.1,2.1,0,0,1,16.266,24Zm6.07-7.3a3.521,3.521,0,0,0-2.461,1.385v4.509H16.266a.707.707,0,0,0,.5-.206l4.219-4.219a.7.7,0,1,0-.994-.994l-3.807,3.807a.7.7,0,0,1-.5.206h-3.7a.7.7,0,0,0-.57.291.7.7,0,1,1-1.139-.824,2.115,2.115,0,0,1,1.709-.873h2.872a.7.7,0,1,0,0-1.406H12.578a2.41,2.41,0,0,1-1.724-.817,3.532,3.532,0,0,0-2.328-.876C8.411,16.682,8.3,16.688,8.18,16.7ZM2.813,22.594h1.5V18.375h-1.5ZM.7,14.157a.7.7,0,0,1,0-1.406h.728a10.727,10.727,0,0,1,8.7-9.762,2.109,2.109,0,1,1,3.834,0,10.653,10.653,0,0,1,8.607,9.761H23.3a.7.7,0,0,1,0,1.406ZM2.841,12.75h18.32a9.2,9.2,0,0,0-9.114-8.541A9.381,9.381,0,0,0,2.841,12.75Zm8.5-10.641a.7.7,0,1,0,.7-.7A.7.7,0,0,0,11.344,2.109Z" transform="translate(111.496 779.498)" fill="#fff"/>
  </g>
</svg>
