<svg xmlns="http://www.w3.org/2000/svg" width="25.966" height="26.573" viewBox="0 0 25.966 26.573">
  <g id="Settinga" transform="translate(-366.795 -777.112)">
    <path id="Path_70" data-name="Path 70" d="M24,15.9a9.867,9.867,0,0,0,.089-1.241A9.867,9.867,0,0,0,24,13.421l2.672-2.089a.639.639,0,0,0,.152-.81L24.288,6.14a.632.632,0,0,0-.557-.317.591.591,0,0,0-.215.038L20.363,7.128a9.251,9.251,0,0,0-2.14-1.241l-.481-3.355A.617.617,0,0,0,17.122,2H12.057a.617.617,0,0,0-.62.532l-.481,3.355a9.728,9.728,0,0,0-2.14,1.241L5.663,5.862a.717.717,0,0,0-.228-.038.627.627,0,0,0-.544.317L2.358,10.521a.624.624,0,0,0,.152.81l2.672,2.089a10.041,10.041,0,0,0-.089,1.241A10.041,10.041,0,0,0,5.182,15.9L2.51,17.992a.639.639,0,0,0-.152.81l2.532,4.381a.632.632,0,0,0,.557.317.591.591,0,0,0,.215-.038L8.816,22.2a9.251,9.251,0,0,0,2.14,1.241l.481,3.355a.617.617,0,0,0,.62.532h5.065a.617.617,0,0,0,.62-.532l.481-3.355a9.728,9.728,0,0,0,2.14-1.241l3.153,1.266a.717.717,0,0,0,.228.038.627.627,0,0,0,.544-.317L26.821,18.8a.639.639,0,0,0-.152-.81ZM21.49,13.737a6.765,6.765,0,0,1,.063.924c0,.266-.025.544-.063.924l-.177,1.431,1.127.886,1.367,1.064L22.921,20.5l-1.608-.646L20,19.321l-1.14.861a7.415,7.415,0,0,1-1.583.924l-1.342.544-.2,1.431-.253,1.709H13.7l-.241-1.709-.2-1.431-1.342-.544a7.184,7.184,0,0,1-1.557-.9l-1.152-.886-1.342.544-1.608.646-.886-1.532,1.367-1.064,1.127-.886L7.689,15.6c-.038-.393-.063-.684-.063-.937s.025-.544.063-.924l.177-1.431L6.739,11.42,5.372,10.357l.886-1.532,1.608.646L9.183,10l1.14-.861a7.415,7.415,0,0,1,1.583-.924l1.342-.544.2-1.431L13.7,4.532h1.76L15.7,6.242l.2,1.431,1.342.544a7.184,7.184,0,0,1,1.557.9L19.958,10,21.3,9.458l1.608-.646.886,1.532L22.44,11.42l-1.127.886.177,1.431ZM14.59,9.6a5.065,5.065,0,1,0,5.065,5.065A5.063,5.063,0,0,0,14.59,9.6Zm0,7.6a2.532,2.532,0,1,1,2.532-2.532A2.54,2.54,0,0,1,14.59,17.194Z" transform="translate(365.195 775.737)" fill="#fed430" stroke="#bd202e" stroke-width="1.25"/>
  </g>
</svg>
